# xmcd CD database file
#
# Track frame offsets:
#	150
#	26535
#	51603
#	80766
#	112366
#	150380
#	170001
#	198874
#
# Disc length: 3017 seconds
#
# Revision: 0
# Processed by: cddbd v1.5.2PL0 Copyright (c) Steve Scherf et al.
# Submitted via: CDex 1.70beta2
#
DISCID=6c0bc708
DTITLE=Paul Sullivan - Break Away
DYEAR=2008
DGENRE=Jazz
TTITLE0=Once Around
TTITLE1=I´ve got a feeling
TTITLE2=Holy Mackerel
TTITLE3=Watch the clouds
TTITLE4=Reversing Falls
TTITLE5=Rain on the lake
TTITLE6=Whisper
TTITLE7=Our Turn
EXTD=YEAR: 2008
EXTT0=
EXTT1=
EXTT2=
EXTT3=
EXTT4=
EXTT5=
EXTT6=
EXTT7=
PLAYORDER=
